External Loads File
version=1
nRows=70
nColumns=13
Range=5.000000e-03-10 seconds
endheader
time 	forceRightX 	forceRightY 	forceRightZ 	pointRightX 	pointRightY 	pointRightZ 	forceLeftX 	forceLeftY 	forceLeftZ 	pointLeftX 	pointLeftY 	pointLeftZ 		
5.005000 -1.892271 47.083874 -0.000000 0.266399 0.463162 -0.124870 88.102194 776.160350 -0.000000 0.378509 0.153577 -0.368251
5.010000 -4.693107 56.368866 -0.000000 0.275964 0.468046 -0.124958 112.565592 768.128627 -0.000000 0.369115 0.149076 -0.367897
5.015000 -7.750172 64.878434 -0.000000 0.285970 0.472601 -0.125373 135.400991 753.211642 -0.000000 0.359556 0.145052 -0.367656
5.020000 -11.239227 72.383196 -0.000000 0.295851 0.476600 -0.125358 154.568399 732.003530 -0.000000 0.349757 0.141738 -0.367455
5.025000 -15.163199 78.865098 -0.000000 0.305767 0.479756 -0.125881 169.624954 705.221368 -0.000000 0.339895 0.139165 -0.367292
5.030000 -19.395844 84.504952 -0.000000 0.315691 0.482177 -0.126061 180.557003 673.692864 -0.000000 0.329997 0.137074 -0.367239
5.035000 -24.013957 89.549523 -0.000000 0.325675 0.484218 -0.126336 185.533527 638.919157 -0.000000 0.321218 0.135542 -0.366485
5.040000 -27.758975 94.656776 -0.000000 0.335645 0.485499 -0.126548 191.891059 599.772051 -0.000000 0.309679 0.134876 -0.367032
5.045000 -31.413192 99.906968 -0.000000 0.345487 0.486145 -0.126954 192.430574 559.414913 -0.000000 0.299521 0.134865 -0.367050
5.050000 -34.367607 105.680887 -0.000000 0.355053 0.486221 -0.127207 190.147533 517.994121 -0.000000 0.289343 0.135559 -0.367145
5.055000 -36.420157 112.208672 -0.000000 0.364313 0.485773 -0.127385 185.703868 476.224122 -0.000000 0.279187 0.137259 -0.367256
5.060000 -37.377628 119.718491 -0.000000 0.373682 0.484638 -0.127689 180.033867 434.521042 -0.000000 0.269143 0.139614 -0.367405
5.065000 -37.521231 128.316069 -0.000000 0.382317 0.482842 -0.127736 172.586590 393.713383 -0.000000 0.259287 0.142801 -0.367528
5.070000 -36.794780 138.261554 -0.000000 0.390694 0.480357 -0.128045 164.314087 353.866972 -0.000000 0.249743 0.146933 -0.367607
5.075000 -35.363618 149.785040 -0.000000 0.398658 0.477086 -0.128322 155.349015 315.277217 -0.000000 0.240524 0.151707 -0.367662
5.080000 -33.291707 163.151002 -0.000000 0.406197 0.473077 -0.128490 146.044350 278.063930 -0.000000 0.231554 0.157121 -0.367776
5.085000 -30.733083 178.567297 -0.000000 0.413441 0.468225 -0.128213 136.539649 242.388642 -0.000000 0.223158 0.163090 -0.367646
5.090000 -27.877651 196.146763 -0.000000 0.420035 0.462613 -0.128171 126.963525 208.387335 -0.000000 0.215174 0.169672 -0.367535
5.095000 -24.783953 215.855437 -0.000000 0.426257 0.456460 -0.128194 117.587197 176.104291 -0.000000 0.207620 0.176904 -0.367386
5.100000 -21.370317 237.420356 -0.000000 0.431832 0.449495 -0.127839 108.675588 145.569672 -0.000000 0.199989 0.184726 -0.366180
5.105000 -18.308170 260.230076 -0.000000 0.437063 0.441825 -0.127557 99.987248 117.179511 -0.000000 0.193503 0.193071 -0.366060
5.110000 -15.928088 283.537058 -0.000000 0.441799 0.433768 -0.127181 91.653717 91.078809 -0.000000 0.187632 0.201719 -0.365820
5.115000 -13.616928 306.580157 -0.000000 0.446210 0.424338 -0.126822 83.963589 67.138674 -0.000000 0.182338 0.210831 -0.365719
5.120000 -12.323614 328.586209 -0.000000 0.450339 0.414690 -0.126699 76.637040 45.746826 -0.000000 0.177684 0.220267 -0.365538
5.125000 -12.589272 349.005590 -0.000000 0.454046 0.404759 -0.126450 69.685131 27.079917 -0.000000 0.173665 0.229622 -0.365458
5.130000 -13.863388 367.568245 -0.000000 0.457335 0.394524 -0.126242 63.265614 11.040046 -0.000000 0.170252 0.239521 -0.365311
5.135000 -15.972818 384.231259 -0.000000 0.460233 0.383972 -0.125808 57.459924 -2.439529 -0.000000 0.167438 0.249888 -0.365270
5.140000 -19.404547 399.145046 -0.000000 0.462657 0.373354 -0.125651 52.371474 -13.421917 -0.000000 0.165316 0.260373 -0.365222
5.145000 -23.549038 412.702885 -0.000000 0.464628 0.362466 -0.125496 48.083086 -22.191195 -0.000000 0.163683 0.271023 -0.365028
5.150000 -28.317238 425.434585 -0.000000 0.466076 0.351332 -0.125134 44.641983 -28.953730 -0.000000 0.162815 0.281794 -0.364794
5.155000 -33.488255 437.974343 -0.000000 0.467205 0.340191 -0.125195 42.068405 -33.892003 -0.000000 0.162433 0.292706 -0.364657
5.160000 -38.426223 451.004711 -0.000000 0.467775 0.328897 -0.125025 40.341769 -37.185870 -0.000000 0.162674 0.303837 -0.364448
5.165000 -43.024837 465.057439 -0.000000 0.467588 0.317349 -0.125002 39.475755 -38.963552 -0.000000 0.163572 0.314768 -0.364347
5.170000 -46.974589 480.454614 -0.000000 0.467104 0.305877 -0.124296 39.445012 -39.401453 -0.000000 0.165074 0.325617 -0.364274
5.175000 -49.634359 497.311228 -0.000000 0.465610 0.294558 -0.124587 40.152530 -38.748167 -0.000000 0.167209 0.336439 -0.364236
5.180000 -49.730549 515.616843 -0.000000 0.463617 0.282786 -0.124527 41.397092 -37.362126 -0.000000 0.169894 0.347090 -0.364224
5.185000 -49.146468 534.933197 -0.000000 0.461290 0.271931 -0.124710 43.128015 -35.392989 -0.000000 0.173229 0.357624 -0.364310
5.190000 -46.371698 555.114576 -0.000000 0.458250 0.261128 -0.124829 44.944903 -33.275818 -0.000000 0.177197 0.367861 -0.364464
5.195000 -41.435290 575.863556 -0.000000 0.454584 0.250611 -0.124966 46.485941 -31.294074 -0.000000 0.181687 0.377979 -0.364445
5.200000 -34.288122 596.894669 -0.000000 0.450255 0.240353 -0.124968 47.371649 -29.643096 -0.000000 0.186767 0.387858 -0.364648
5.205000 -25.310839 617.903778 -0.000000 0.445350 0.230402 -0.125347 47.324358 -28.345205 -0.000000 0.192418 0.397302 -0.364815
5.210000 -14.345309 638.613898 -0.000000 0.439969 0.220812 -0.125410 46.173621 -27.343975 -0.000000 0.198627 0.406452 -0.364927
5.215000 -1.250724 658.688422 -0.000000 0.434039 0.211640 -0.125478 43.884998 -26.494626 -0.000000 0.205372 0.415335 -0.365014
5.220000 13.632273 677.705709 -0.000000 0.427571 0.202950 -0.125572 40.551401 -25.571052 -0.000000 0.212634 0.423753 -0.365069
5.225000 30.287313 695.169692 -0.000000 0.420565 0.194741 -0.125656 36.326439 -24.373251 -0.000000 0.220300 0.431765 -0.365162
5.230000 47.589682 710.573781 -0.000000 0.413147 0.187151 -0.125689 31.434433 -22.686017 -0.000000 0.227902 0.439498 -0.364480
5.235000 69.024646 723.009006 -0.000000 0.405206 0.180018 -0.125724 25.949986 -20.526234 -0.000000 0.237362 0.446663 -0.365959
5.240000 88.536667 732.253568 -0.000000 0.396978 0.173480 -0.125842 20.203583 -17.548460 -0.000000 0.245837 0.453318 -0.365055
5.245000 109.071113 737.290861 -0.000000 0.388281 0.167493 -0.125836 14.208535 -13.797984 -0.000000 0.254892 0.459318 -0.364737
5.250000 130.534452 737.241755 -0.000000 0.379303 0.162124 -0.125822 8.055730 -9.210312 -0.000000 0.264772 0.464794 -0.365532
5.255000 148.910303 732.037224 -0.000000 0.370016 0.157423 -0.125743 1.864269 -3.741853 -0.000000 0.273849 0.469580 -0.364804
5.260000 166.687834 720.637732 -0.000000 0.360471 0.153322 -0.125712 -4.325766 2.525647 -0.000000 0.283537 0.473759 -0.364827
5.265000 181.869604 703.073642 -0.000000 0.350824 0.149849 -0.125590 -10.398293 9.511674 -0.000000 0.293354 0.477226 -0.364802
5.270000 193.808071 679.496152 -0.000000 0.341048 0.147113 -0.125492 -16.211423 17.099376 -0.000000 0.303192 0.480151 -0.364903
5.275000 202.419097 650.332043 -0.000000 0.331072 0.144848 -0.125361 -21.571866 25.188502 -0.000000 0.313108 0.482468 -0.364831
5.280000 206.687778 616.737611 -0.000000 0.321241 0.143285 -0.125165 -26.305032 33.667387 -0.000000 0.323012 0.484051 -0.364843
5.285000 207.779598 579.519558 -0.000000 0.311030 0.142319 -0.124940 -30.146788 42.522525 -0.000000 0.332892 0.485025 -0.364786
5.290000 204.100936 540.595895 -0.000000 0.301013 0.142146 -0.124632 -33.068799 51.626050 -0.000000 0.342042 0.485418 -0.365028
5.295000 198.064492 500.377742 -0.000000 0.291123 0.142740 -0.124452 -34.843817 61.091787 -0.000000 0.351364 0.485387 -0.364969
5.300000 190.297483 459.637903 -0.000000 0.281000 0.144075 -0.123973 -35.416004 71.027508 -0.000000 0.360438 0.484863 -0.364705
5.305000 180.907215 419.086603 -0.000000 0.271026 0.146208 -0.123550 -34.874169 81.613728 -0.000000 0.369138 0.483709 -0.364868
5.310000 170.203136 379.133189 -0.000000 0.261451 0.148919 -0.123368 -33.366621 93.171323 -0.000000 0.377442 0.481997 -0.365229
5.315000 159.157096 339.722515 -0.000000 0.251993 0.152301 -0.123039 -30.919178 106.143197 -0.000000 0.385296 0.479434 -0.365383
5.320000 148.083128 300.964711 -0.000000 0.242818 0.156362 -0.122697 -27.713921 120.846449 -0.000000 0.392893 0.476463 -0.365817
5.325000 137.110822 262.981947 -0.000000 0.234029 0.161101 -0.122422 -24.111926 137.386769 -0.000000 0.399763 0.472558 -0.365607
5.330000 126.614883 225.716679 -0.000000 0.225735 0.166430 -0.122046 -20.501827 155.642210 -0.000000 0.406029 0.467578 -0.365686
5.335000 116.988660 189.029001 -0.000000 0.217729 0.172183 -0.121750 -17.223304 175.270470 -0.000000 0.412104 0.461607 -0.366151
5.340000 108.112927 153.013114 -0.000000 0.210279 0.178503 -0.121361 -14.853807 195.737198 -0.000000 0.417832 0.454361 -0.366675
5.345000 99.789887 117.818205 -0.000000 0.203302 0.185417 -0.121103 -13.930672 216.403715 -0.000000 0.423328 0.446507 -0.367349
5.350000 91.827401 83.642808 -0.000000 0.196810 0.192909 -0.120904 -14.754841 236.567484 -0.000000 0.428440 0.437946 -0.367955
